<?xml version="1.0" encoding="UTF-8"?>
<svg viewBox="0 0 120 120" width="200" height="200" xmlns="http://www.w3.org/2000/svg" style="shape-rendering: geometricprecision;"><g fill="none" stroke="#201a17" stroke-width="1.4" stroke-linecap="round" stroke-linejoin="round" vector-effect="non-scaling-stroke"><path d="M30 42 L22 18 L46 32 Z" fill="#8a2c3a"></path><path d="M90 42 L98 18 L74 32 Z" fill="#8a2c3a"></path><path d="M28 30 L26 22 L36 28 Z" fill="#f7f2e8" stroke="none"></path><path d="M92 30 L94 22 L84 28 Z" fill="#f7f2e8" stroke="none"></path><path d="M28 48 Q28 82 60 92 Q92 82 92 48 Q92 38 82 34 Q60 28 38 34 Q28 38 28 48 Z" fill="#8a2c3a"></path><path d="M48 62 Q60 82 72 62 Q66 70 60 70 Q54 70 48 62 Z" fill="#f7f2e8"></path><circle cx="60" cy="64" r="2.5" fill="#201a17" stroke="none"></circle><circle cx="46" cy="56" r="1.6" fill="#201a17" stroke="none"></circle><circle cx="74" cy="56" r="1.6" fill="#201a17" stroke="none"></circle><path d="M41 50 L50 49"></path><path d="M79 50 L70 49"></path><path d="M44 66 L36 64"></path><path d="M76 66 L84 64"></path></g></svg>