<?xml version="1.0" encoding="UTF-8"?>
<svg viewBox="0 0 120 120" width="200" height="200" xmlns="http://www.w3.org/2000/svg" style="shape-rendering: geometricprecision;"><g fill="none" stroke="#201a17" stroke-width="1.4" stroke-linecap="round" stroke-linejoin="round" vector-effect="non-scaling-stroke"><path d="M26 54 Q26 92 60 96 Q94 92 94 54 Q94 28 60 26 Q26 28 26 54 Z" fill="#8a2c3a"></path><path d="M36 32 L30 18 L44 28 Z" fill="#8a2c3a"></path><path d="M84 32 L90 18 L76 28 Z" fill="#8a2c3a"></path><path d="M38 72 Q44 76 50 72" stroke-width="1"></path><path d="M50 72 Q56 76 62 72" stroke-width="1"></path><path d="M62 72 Q68 76 74 72" stroke-width="1"></path><path d="M74 72 Q80 76 86 72" stroke-width="1"></path><path d="M42 80 Q48 84 54 80" stroke-width="1"></path><path d="M54 80 Q60 84 66 80" stroke-width="1"></path><path d="M66 80 Q72 84 78 80" stroke-width="1"></path><path d="M46 88 Q52 92 58 88" stroke-width="1"></path><path d="M58 88 Q64 92 70 88" stroke-width="1"></path><path d="M30 42 Q34 62 48 62 Q58 62 60 56 Q62 62 72 62 Q86 62 90 42 Q80 36 60 36 Q40 36 30 42 Z" fill="#f7f2e8"></path><circle cx="47" cy="50" r="7" fill="#f7f2e8" stroke="#201a17" stroke-width="1.3"></circle><circle cx="73" cy="50" r="7" fill="#f7f2e8" stroke="#201a17" stroke-width="1.3"></circle><circle cx="47" cy="50" r="3.5" fill="#201a17" stroke="none"></circle><circle cx="73" cy="50" r="3.5" fill="#201a17" stroke="none"></circle><circle cx="48.5" cy="48.5" r="1" fill="#f7f2e8" stroke="none"></circle><circle cx="74.5" cy="48.5" r="1" fill="#f7f2e8" stroke="none"></circle><path d="M40 42 Q47 39 54 42" stroke-width="1.1"></path><path d="M66 42 Q73 39 80 42" stroke-width="1.1"></path><path d="M60 58 L56 62 L60 68 L64 62 Z" fill="#5a1e28" stroke="#5a1e28"></path><path d="M52 96 L52 100 M56 96 L56 100 M50 100 L58 100" stroke-width="1"></path><path d="M64 96 L64 100 M68 96 L68 100 M62 100 L70 100" stroke-width="1"></path></g></svg>