<?xml version="1.0" encoding="UTF-8"?>
<svg viewBox="0 0 120 120" width="200" height="200" xmlns="http://www.w3.org/2000/svg" style="shape-rendering: geometricprecision;"><g fill="none" stroke="#201a17" stroke-width="1.4" stroke-linecap="round" stroke-linejoin="round" vector-effect="non-scaling-stroke"><circle cx="35" cy="34" r="10" fill="#8a2c3a"></circle><circle cx="85" cy="34" r="10" fill="#8a2c3a"></circle><circle cx="35" cy="34" r="4" fill="#5a1e28" stroke="none"></circle><circle cx="85" cy="34" r="4" fill="#5a1e28" stroke="none"></circle><path d="M25 56 Q25 90 60 94 Q95 90 95 56 Q95 38 60 36 Q25 38 25 56 Z" fill="#8a2c3a"></path><ellipse cx="60" cy="70" rx="16" ry="12" fill="#f7f2e8"></ellipse><ellipse cx="60" cy="62" rx="4" ry="3" fill="#201a17" stroke="none"></ellipse><path d="M60 65 L60 72"></path><path d="M60 72 Q55 76 52 74"></path><path d="M60 72 Q65 76 68 74"></path><circle cx="48" cy="52" r="1.6" fill="#201a17" stroke="none"></circle><circle cx="72" cy="52" r="1.6" fill="#201a17" stroke="none"></circle></g></svg>