<?xml version="1.0" encoding="UTF-8"?>
<svg viewBox="0 0 120 120" width="200" height="200" xmlns="http://www.w3.org/2000/svg" style="shape-rendering: geometricprecision;"><g fill="none" stroke="#201a17" stroke-width="1.4" stroke-linecap="round" stroke-linejoin="round" vector-effect="non-scaling-stroke"><circle cx="58" cy="56" r="24" fill="#8a2c3a"></circle><circle cx="58" cy="56" r="17" fill="#f7f2e8"></circle><circle cx="58" cy="56" r="10" fill="#8a2c3a"></circle><circle cx="58" cy="56" r="4" fill="#f7f2e8"></circle><path d="M22 82 Q22 70 36 70 L80 70 Q94 70 96 80 L96 84 Q96 88 92 88 L26 88 Q22 88 22 84 Z" fill="#b8556a"></path><path d="M96 82 Q108 82 108 72"></path><circle cx="108" cy="70" r="2" fill="#201a17" stroke="none"></circle><path d="M100 82 Q110 80 112 68"></path><circle cx="112" cy="66" r="2" fill="#201a17" stroke="none"></circle><circle cx="100" cy="79" r="1.6" fill="#201a17" stroke="none"></circle><path d="M96 84 Q99 86 102 84"></path></g></svg>