<?xml version="1.0" encoding="UTF-8"?>
<svg viewBox="0 0 120 120" width="200" height="200" xmlns="http://www.w3.org/2000/svg" style="shape-rendering: geometricprecision;"><g fill="none" stroke="#201a17" stroke-width="1.4" stroke-linecap="round" stroke-linejoin="round" vector-effect="non-scaling-stroke"><path d="M44 38 Q38 8 48 10 Q56 12 52 38" fill="#8a2c3a"></path><path d="M76 38 Q82 8 72 10 Q64 12 68 38" fill="#8a2c3a"></path><path d="M46 34 Q44 18 48 16" stroke="#5a1e28"></path><path d="M74 34 Q76 18 72 16" stroke="#5a1e28"></path><circle cx="60" cy="62" r="30" fill="#8a2c3a"></circle><circle cx="50" cy="58" r="1.6" fill="#201a17" stroke="none"></circle><circle cx="70" cy="58" r="1.6" fill="#201a17" stroke="none"></circle><path d="M56 70 L60 74 L64 70 Z" fill="#5a1e28"></path><path d="M60 74 L60 78"></path><path d="M60 78 Q56 80 54 78"></path><path d="M60 78 Q64 80 66 78"></path><rect x="57" y="80" width="3" height="5" fill="#f7f2e8"></rect><rect x="60" y="80" width="3" height="5" fill="#f7f2e8"></rect><circle cx="42" cy="68" r="3" fill="#b8556a" stroke="none" opacity="0.5"></circle><circle cx="78" cy="68" r="3" fill="#b8556a" stroke="none" opacity="0.5"></circle></g></svg>