<?xml version="1.0" encoding="UTF-8"?>
<svg viewBox="0 0 120 120" width="200" height="200" xmlns="http://www.w3.org/2000/svg" style="shape-rendering: geometricprecision;"><g fill="none" stroke="#201a17" stroke-width="1.4" stroke-linecap="round" stroke-linejoin="round" vector-effect="non-scaling-stroke"><path d="M30 46 Q26 20 40 22 Q48 30 48 44 Z" fill="#8a2c3a"></path><path d="M90 46 Q94 20 80 22 Q72 30 72 44 Z" fill="#8a2c3a"></path><path d="M34 40 Q34 28 40 26" stroke="#5a1e28" stroke-width="1"></path><path d="M86 40 Q86 28 80 26" stroke="#5a1e28" stroke-width="1"></path><path d="M28 62 Q28 90 60 94 Q92 90 92 62 Q92 44 60 44 Q28 44 28 62 Z" fill="#8a2c3a"></path><path d="M32 68 Q30 76 34 82" stroke-width="1"></path><path d="M88 68 Q90 76 86 82" stroke-width="1"></path><path d="M42 62 Q48 58 54 62" stroke-width="1.4"></path><path d="M66 62 Q72 58 78 62" stroke-width="1.4"></path><path d="M43 60 Q48 57 53 60" stroke-width="0.9"></path><path d="M67 60 Q72 57 77 60" stroke-width="0.9"></path><path d="M57 72 L63 72 L60 76 Z" fill="#5a1e28" stroke="#5a1e28"></path><path d="M60 76 Q60 80 56 80 Q54 80 52 78" stroke-width="1.1"></path><path d="M60 76 Q60 80 64 80 Q66 80 68 78" stroke-width="1.1"></path><path d="M34 74 L48 75" stroke-width="0.8"></path><path d="M34 78 L48 77" stroke-width="0.8"></path><path d="M86 74 L72 75" stroke-width="0.8"></path><path d="M86 78 L72 77" stroke-width="0.8"></path><circle cx="38" cy="72" r="3" fill="#b8556a" stroke="none" opacity="0.5"></circle><circle cx="82" cy="72" r="3" fill="#b8556a" stroke="none" opacity="0.5"></circle></g></svg>