<?xml version="1.0" encoding="UTF-8"?>
<svg viewBox="0 0 120 120" width="200" height="200" xmlns="http://www.w3.org/2000/svg" style="shape-rendering: geometricprecision;"><g fill="none" stroke="#201a17" stroke-width="1.4" stroke-linecap="round" stroke-linejoin="round" vector-effect="non-scaling-stroke"><path d="M16 68 L22 54 L26 62 L32 46 L36 58 L42 42 L46 56 L52 40 L56 54 L62 38 L66 54 L72 40 L76 56 L82 42 L86 58 L92 46 L96 62 L100 54 L104 68 Q104 86 80 90 L40 90 Q16 86 16 68 Z" fill="#8a2c3a"></path><path d="M40 66 L42 72 M50 64 L52 70 M60 62 L60 68 M70 64 L68 70 M80 66 L78 72" stroke-width="0.9"></path><path d="M40 72 Q28 78 28 86 Q40 92 52 88 Q58 84 58 80 Q58 76 52 74 Z" fill="#f7f2e8"></path><circle cx="30" cy="84" r="2.6" fill="#201a17" stroke="none"></circle><circle cx="31" cy="83" r="0.7" fill="#f7f2e8" stroke="none"></circle><circle cx="46" cy="80" r="1.6" fill="#201a17" stroke="none"></circle><circle cx="46.5" cy="79.5" r="0.5" fill="#f7f2e8" stroke="none"></circle><path d="M36 88 Q40 90 44 88" stroke-width="0.9"></path><path d="M58 88 L58 94 M62 88 L62 94 M66 88 L66 94" stroke-width="1"></path><circle cx="50" cy="86" r="3" fill="#b8556a" stroke="none" opacity="0.5"></circle></g></svg>