<?xml version="1.0" encoding="UTF-8"?>
<svg viewBox="0 0 120 120" width="200" height="200" xmlns="http://www.w3.org/2000/svg" style="shape-rendering: geometricprecision;"><g fill="none" stroke="#201a17" stroke-width="1.4" stroke-linecap="round" stroke-linejoin="round" vector-effect="non-scaling-stroke"><path d="M52 96 L52 54 Q52 48 60 48 Q68 48 68 54 L68 96 Z" fill="#8a2c3a"></path><path d="M54 50 Q54 34 66 30 Q84 28 88 40 Q90 50 78 54 Q66 54 60 54 Q54 54 54 50 Z" fill="#8a2c3a"></path><ellipse cx="84" cy="44" rx="6" ry="5" fill="#f7f2e8"></ellipse><path d="M62 30 Q56 22 64 24 Q66 26 66 30 Z" fill="#8a2c3a"></path><path d="M76 30 Q84 22 82 32" fill="#8a2c3a"></path><path d="M68 28 L66 18" stroke-width="1.4"></path><circle cx="66" cy="17" r="2.2" fill="#5a1e28" stroke="#201a17" stroke-width="1"></circle><path d="M78 28 L80 18" stroke-width="1.4"></path><circle cx="80" cy="17" r="2.2" fill="#5a1e28" stroke="#201a17" stroke-width="1"></circle><path d="M54 62 L58 60 L60 64 L57 66 Z" fill="#5a1e28" stroke="none"></path><path d="M62 70 L66 68 L66 74 L62 74 Z" fill="#5a1e28" stroke="none"></path><path d="M54 78 L58 76 L58 82 L55 82 Z" fill="#5a1e28" stroke="none"></path><path d="M62 86 L66 84 L66 90 L62 90 Z" fill="#5a1e28" stroke="none"></path><path d="M60 40 L64 38 L64 44 L60 44 Z" fill="#5a1e28" stroke="none"></path><path d="M70 36 L74 34 L74 40 L70 40 Z" fill="#5a1e28" stroke="none"></path><circle cx="72" cy="42" r="1.6" fill="#201a17" stroke="none"></circle><circle cx="72.4" cy="41.6" r="0.5" fill="#f7f2e8" stroke="none"></circle><path d="M71 39 L70.5 37 M73 39 L73.5 37" stroke-width="0.8"></path><circle cx="85" cy="42" r="0.8" fill="#201a17" stroke="none"></circle><path d="M82 47 Q85 49 87 47" stroke-width="1"></path><path d="M52 52 L50 54 L52 56 L50 58 L52 60 L50 62 L52 64" stroke-width="1"></path></g></svg>