<?xml version="1.0" encoding="UTF-8"?>
<svg viewBox="0 0 120 120" width="200" height="200" xmlns="http://www.w3.org/2000/svg" style="shape-rendering: geometricprecision;"><g fill="none" stroke="#201a17" stroke-width="1.4" stroke-linecap="round" stroke-linejoin="round" vector-effect="non-scaling-stroke"><circle cx="60" cy="62" r="30" fill="#8a2c3a"></circle><path d="M44 70 Q32 76 30 84 Q36 92 50 88 Q62 86 68 78 Q68 72 60 70 Z" fill="#b8556a"></path><circle cx="32" cy="82" r="2.8" fill="#201a17" stroke="none"></circle><circle cx="33" cy="81" r="0.8" fill="#f7f2e8" stroke="none"></circle><path d="M38 88 Q42 90 46 88" stroke-width="0.9"></path><path d="M52 58 Q55 56 58 58" stroke-width="1.3"></path><path d="M68 58 Q71 56 74 58" stroke-width="1.3"></path><path d="M28 60 Q20 58 18 66 L22 72 L26 66 L30 70 L30 64 Z" fill="#8a2c3a"></path><path d="M20 64 L18 68 M22 66 L20 70 M24 68 L22 72" stroke-width="0.9"></path><path d="M92 60 Q100 58 102 66 L98 72 L94 66 L90 70 L90 64 Z" fill="#8a2c3a"></path><path d="M100 64 L102 68 M98 66 L100 70 M96 68 L98 72" stroke-width="0.9"></path><path d="M58 32 Q60 28 62 32" stroke-width="1"></path><circle cx="78" cy="70" r="3" fill="#b8556a" stroke="none" opacity="0.5"></circle><circle cx="42" cy="60" r="3" fill="#b8556a" stroke="none" opacity="0.5"></circle></g></svg>