<?xml version="1.0" encoding="UTF-8"?>
<svg viewBox="0 0 120 120" width="200" height="200" xmlns="http://www.w3.org/2000/svg" style="shape-rendering: geometricprecision;"><g fill="none" stroke="#201a17" stroke-width="1.4" stroke-linecap="round" stroke-linejoin="round" vector-effect="non-scaling-stroke"><path d="M60 64 Q16 60 10 30 Q30 18 46 40 Q58 54 60 64 Z" fill="#8a2c3a"></path><path d="M60 64 Q60 12 46 4  Q34 14 44 40 Q54 58 60 64 Z" fill="#8a2c3a"></path><path d="M60 64 Q60 12 74 4  Q86 14 76 40 Q66 58 60 64 Z" fill="#8a2c3a"></path><path d="M60 64 Q104 60 110 30 Q90 18 74 40 Q62 54 60 64 Z" fill="#8a2c3a"></path><circle cx="22" cy="36" r="3" fill="#f7f2e8"></circle><circle cx="22" cy="36" r="1.2" fill="#201a17" stroke="none"></circle><circle cx="46" cy="14" r="3" fill="#f7f2e8"></circle><circle cx="46" cy="14" r="1.2" fill="#201a17" stroke="none"></circle><circle cx="74" cy="14" r="3" fill="#f7f2e8"></circle><circle cx="74" cy="14" r="1.2" fill="#201a17" stroke="none"></circle><circle cx="98" cy="36" r="3" fill="#f7f2e8"></circle><circle cx="98" cy="36" r="1.2" fill="#201a17" stroke="none"></circle><path d="M46 76 Q46 98 60 100 Q74 98 74 76 Q74 64 60 64 Q46 64 46 76 Z" fill="#5a1e28"></path><circle cx="60" cy="60" r="8" fill="#5a1e28"></circle><path d="M57 52 Q55 46 56 42"></path><circle cx="56" cy="41" r="1.4" fill="#8a2c3a" stroke="none"></circle><path d="M60 51 Q60 45 60 40"></path><circle cx="60" cy="39" r="1.4" fill="#8a2c3a" stroke="none"></circle><path d="M63 52 Q65 46 64 42"></path><circle cx="64" cy="41" r="1.4" fill="#8a2c3a" stroke="none"></circle><circle cx="57" cy="60" r="1.3" fill="#f7f2e8" stroke="none"></circle><circle cx="63" cy="60" r="1.3" fill="#f7f2e8" stroke="none"></circle><path d="M58 64 L60 67 L62 64 Z" fill="#f7f2e8" stroke="#f7f2e8"></path></g></svg>