<?xml version="1.0" encoding="UTF-8"?>
<svg viewBox="0 0 120 120" width="200" height="200" xmlns="http://www.w3.org/2000/svg" style="shape-rendering: geometricprecision;"><g fill="none" stroke="#201a17" stroke-width="1.4" stroke-linecap="round" stroke-linejoin="round" vector-effect="non-scaling-stroke"><path d="M18 62 Q18 32 60 32 Q102 32 102 62 Q102 84 60 84 Q18 84 18 62 Z" fill="#8a2c3a"></path><path d="M38 62 L60 40 L82 62 L60 80 Z"></path><path d="M38 62 L18 62 M82 62 L102 62"></path><path d="M60 40 L60 32 M60 80 L60 84"></path><circle cx="60" cy="94" r="12" fill="#b8556a"></circle><circle cx="56" cy="92" r="1.6" fill="#201a17" stroke="none"></circle><circle cx="64" cy="92" r="1.6" fill="#201a17" stroke="none"></circle><path d="M56 98 Q60 100 64 98"></path><ellipse cx="22" cy="82" rx="6" ry="4" fill="#b8556a"></ellipse><ellipse cx="98" cy="82" rx="6" ry="4" fill="#b8556a"></ellipse></g></svg>