<?xml version="1.0" encoding="UTF-8"?>
<svg viewBox="0 0 120 120" width="200" height="200" xmlns="http://www.w3.org/2000/svg" style="shape-rendering: geometricprecision;"><g fill="none" stroke="#201a17" stroke-width="1.4" stroke-linecap="round" stroke-linejoin="round" vector-effect="non-scaling-stroke"><path d="M30 40 L22 18 L44 32 Z" fill="#8a2c3a"></path><path d="M90 40 L98 18 L76 32 Z" fill="#8a2c3a"></path><path d="M32 32 L28 22 L38 30 Z" fill="#201a17" stroke="none"></path><path d="M88 32 L92 22 L82 30 Z" fill="#201a17" stroke="none"></path><path d="M26 54 Q26 84 60 92 Q94 84 94 54 Q94 38 60 38 Q26 38 26 54 Z" fill="#8a2c3a"></path><path d="M44 68 Q44 90 60 92 Q76 90 76 68 Q76 60 60 60 Q44 60 44 68 Z" fill="#f7f2e8"></path><circle cx="48" cy="58" r="1.6" fill="#201a17" stroke="none"></circle><circle cx="72" cy="58" r="1.6" fill="#201a17" stroke="none"></circle><path d="M42 52 L50 52"></path><path d="M78 52 L70 52"></path><path d="M54 72 L60 78 L66 72 Z" fill="#201a17" stroke="none"></path><path d="M60 78 L60 82"></path><path d="M60 82 Q55 84 52 82"></path><path d="M60 82 Q65 84 68 82"></path></g></svg>