<?xml version="1.0" encoding="UTF-8"?>
<svg viewBox="0 0 120 120" width="200" height="200" xmlns="http://www.w3.org/2000/svg" style="shape-rendering: geometricprecision;"><g fill="none" stroke="#201a17" stroke-width="1.4" stroke-linecap="round" stroke-linejoin="round" vector-effect="non-scaling-stroke"><circle cx="60" cy="54" r="26" fill="#8a2c3a"></circle><path d="M52 30 Q54 22 58 26 Q60 20 62 26 Q66 22 68 30" fill="#8a2c3a"></path><circle cx="52" cy="52" r="2" fill="#201a17" stroke="none"></circle><circle cx="68" cy="52" r="2" fill="#201a17" stroke="none"></circle><circle cx="52.6" cy="51.4" r="0.7" fill="#f7f2e8" stroke="none"></circle><circle cx="68.6" cy="51.4" r="0.7" fill="#f7f2e8" stroke="none"></circle><ellipse cx="60" cy="66" rx="14" ry="8" fill="#b8556a"></ellipse><path d="M46 66 Q60 69 74 66" stroke-width="1"></path><circle cx="54" cy="64" r="0.9" fill="#201a17" stroke="none"></circle><circle cx="66" cy="64" r="0.9" fill="#201a17" stroke="none"></circle><path d="M44 76 Q40 92 56 96 L76 96 Q88 90 86 80" fill="#8a2c3a"></path><path d="M64 84 Q76 82 80 90 Q72 92 64 88 Z" fill="#f7f2e8"></path><path d="M68 86 Q72 85 74 88" stroke-width="1"></path><circle cx="38" cy="60" r="3" fill="#b8556a" stroke="none" opacity="0.5"></circle><circle cx="82" cy="60" r="3" fill="#b8556a" stroke="none" opacity="0.5"></circle></g></svg>