<?xml version="1.0" encoding="UTF-8"?>
<svg viewBox="0 0 120 120" width="200" height="200" xmlns="http://www.w3.org/2000/svg" style="shape-rendering: geometricprecision;"><g fill="none" stroke="#201a17" stroke-width="1.4" stroke-linecap="round" stroke-linejoin="round" vector-effect="non-scaling-stroke"><path d="M22 56 Q14 56 14 64 Q14 72 24 72 Q28 70 28 64 Q28 58 22 56 Z" fill="#8a2c3a"></path><circle cx="20" cy="64" r="3" fill="#b8556a" stroke="none"></circle><path d="M98 56 Q106 56 106 64 Q106 72 96 72 Q92 70 92 64 Q92 58 98 56 Z" fill="#8a2c3a"></path><circle cx="100" cy="64" r="3" fill="#b8556a" stroke="none"></circle><path d="M32 56 Q32 36 60 36 Q88 36 88 56 Q88 64 84 68 Q88 76 84 84 Q74 92 60 92 Q46 92 36 84 Q32 76 36 68 Q32 64 32 56 Z" fill="#8a2c3a"></path><path d="M42 62 Q42 52 54 52 Q60 52 60 58 Q60 52 66 52 Q78 52 78 62 Q78 70 72 72 Q78 76 76 82 Q68 88 60 86 Q52 88 44 82 Q42 76 48 72 Q42 70 42 62 Z" fill="#f7f2e8"></path><path d="M46 58 Q52 54 56 58" stroke-width="1.1"></path><path d="M64 58 Q68 54 74 58" stroke-width="1.1"></path><circle cx="51" cy="63" r="1.8" fill="#201a17" stroke="none"></circle><circle cx="69" cy="63" r="1.8" fill="#201a17" stroke="none"></circle><circle cx="51.5" cy="62.5" r="0.6" fill="#f7f2e8" stroke="none"></circle><circle cx="69.5" cy="62.5" r="0.6" fill="#f7f2e8" stroke="none"></circle><path d="M56 70 Q60 68 64 70 Q60 74 56 70 Z" fill="#b8556a" stroke="#5a1e28" stroke-width="0.9"></path><circle cx="58" cy="71" r="0.6" fill="#201a17" stroke="none"></circle><circle cx="62" cy="71" r="0.6" fill="#201a17" stroke="none"></circle><path d="M50 78 Q60 86 70 78 Q60 82 50 78 Z" fill="#5a1e28" stroke="#5a1e28" stroke-width="1"></path><path d="M52 79 Q60 81 68 79" stroke="#f7f2e8" stroke-width="0.8"></path><path d="M54 36 Q58 30 60 34 Q62 30 66 36" stroke-width="1.1"></path></g></svg>