<?xml version="1.0" encoding="UTF-8"?>
<svg viewBox="0 0 120 120" width="200" height="200" xmlns="http://www.w3.org/2000/svg" style="shape-rendering: geometricprecision;"><g fill="none" stroke="#201a17" stroke-width="1.4" stroke-linecap="round" stroke-linejoin="round" vector-effect="non-scaling-stroke"><path d="M46 26 L42 10 L52 22" fill="#8a2c3a"></path><path d="M74 26 L78 10 L68 22" fill="#8a2c3a"></path><path d="M44 36 Q44 18 60 18 Q76 18 76 36 L76 72 Q76 94 60 94 Q44 94 44 72 Z" fill="#8a2c3a"></path><ellipse cx="60" cy="80" rx="12" ry="8" fill="#f7f2e8"></ellipse><circle cx="56" cy="78" r="1.5" fill="#201a17" stroke="none"></circle><circle cx="64" cy="78" r="1.5" fill="#201a17" stroke="none"></circle><path d="M56 84 Q60 86 64 84"></path><circle cx="54" cy="50" r="1.6" fill="#201a17" stroke="none"></circle><circle cx="66" cy="50" r="1.6" fill="#201a17" stroke="none"></circle><path d="M52 24 Q60 14 68 24"></path><path d="M56 22 Q60 16 64 22"></path></g></svg>