<?xml version="1.0" encoding="UTF-8"?>
<svg viewBox="0 0 120 120" width="200" height="200" xmlns="http://www.w3.org/2000/svg" style="shape-rendering: geometricprecision;"><g fill="none" stroke="#201a17" stroke-width="1.4" stroke-linecap="round" stroke-linejoin="round" vector-effect="non-scaling-stroke"><path d="M16 60 Q4 56 8 44 Q20 42 24 52 Z" fill="#8a2c3a"></path><path d="M16 60 Q10 66 14 72"></path><path d="M104 60 Q116 56 112 44 Q100 42 96 52 Z" fill="#8a2c3a"></path><path d="M104 60 Q110 66 106 72"></path><path d="M24 66 Q24 92 60 94 Q96 92 96 66 Q96 52 60 52 Q24 52 24 66 Z" fill="#8a2c3a"></path><path d="M30 80 L20 90"></path><path d="M38 84 L32 96"></path><path d="M90 80 L100 90"></path><path d="M82 84 L88 96"></path><path d="M50 52 L48 42"></path><circle cx="48" cy="40" r="4" fill="#f7f2e8"></circle><circle cx="48" cy="40" r="1.8" fill="#201a17" stroke="none"></circle><path d="M70 52 L72 42"></path><circle cx="72" cy="40" r="4" fill="#f7f2e8"></circle><circle cx="72" cy="40" r="1.8" fill="#201a17" stroke="none"></circle><path d="M50 74 Q60 80 70 74"></path></g></svg>